<?xml version="1.0" encoding="utf-8"?>
<svg version="1.1" xmlns:xlink="http://www.w3.org/1999/xlink" width="25px" height="25px" xmlns="http://www.w3.org/2000/svg">
  <g transform="matrix(1 0 0 1 -447 -69 )">
    <path d="M 459.5 69  C 466.5 69  472 74.5  472 81.5  C 472 88.5  466.5 94  459.5 94  C 452.5 94  447 88.5  447 81.5  C 447 74.5  452.5 69  459.5 69  Z " fill-rule="nonzero" fill="#ffffff" stroke="none" />
    <path d="M 459.5 69.5  C 466.22 69.5  471.5 74.78  471.5 81.5  C 471.5 88.22  466.22 93.5  459.5 93.5  C 452.78 93.5  447.5 88.22  447.5 81.5  C 447.5 74.78  452.78 69.5  459.5 69.5  Z " stroke-width="1" stroke="#797979" fill="none" />
  </g>
</svg>