<?xml version="1.0" encoding="utf-8"?>
<svg version="1.1" xmlns:xlink="http://www.w3.org/1999/xlink" width="12px" height="12px" viewBox="944 428  12 12" xmlns="http://www.w3.org/2000/svg">
  <path d="M 950 428  C 953.36 428  956 430.64  956 434  C 956 437.36  953.36 440  950 440  C 946.64 440  944 437.36  944 434  C 944 430.64  946.64 428  950 428  Z " fill-rule="nonzero" fill="#f0f0f0" stroke="none" />
  <path d="M 950 428.5  C 953.08 428.5  955.5 430.92  955.5 434  C 955.5 437.08  953.08 439.5  950 439.5  C 946.92 439.5  944.5 437.08  944.5 434  C 944.5 430.92  946.92 428.5  950 428.5  Z " stroke-width="1" stroke="#797979" fill="none" />
  <path d="M 950 437  C 948.32 437  947 435.68  947 434  C 947 432.32  948.32 431  950 431  C 951.68 431  953 432.32  953 434  C 953 435.68  951.68 437  950 437  " fill-rule="nonzero" fill="#797979" stroke="none" />
</svg>