<?xml version="1.0" encoding="utf-8"?>
<svg version="1.1" xmlns:xlink="http://www.w3.org/1999/xlink" width="12px" height="12px" viewBox="944 478  12 12" xmlns="http://www.w3.org/2000/svg">
  <path d="M 950 478  C 953.36 478  956 480.64  956 484  C 956 487.36  953.36 490  950 490  C 946.64 490  944 487.36  944 484  C 944 480.64  946.64 478  950 478  Z " fill-rule="nonzero" fill="#ffffff" stroke="none" />
  <path d="M 950 478.5  C 953.08 478.5  955.5 480.92  955.5 484  C 955.5 487.08  953.08 489.5  950 489.5  C 946.92 489.5  944.5 487.08  944.5 484  C 944.5 480.92  946.92 478.5  950 478.5  Z " stroke-width="1" stroke="#797979" fill="none" />
  <path d="M 950 487  C 948.32 487  947 485.68  947 484  C 947 482.32  948.32 481  950 481  C 951.68 481  953 482.32  953 484  C 953 485.68  951.68 487  950 487  " fill-rule="nonzero" fill="#797979" stroke="none" />
</svg>