<?xml version="1.0" encoding="utf-8"?>
<svg version="1.1" xmlns:xlink="http://www.w3.org/1999/xlink" width="12px" height="12px" viewBox="944 650  12 12" xmlns="http://www.w3.org/2000/svg">
  <path d="M 950 650  C 953.36 650  956 652.64  956 656  C 956 659.36  953.36 662  950 662  C 946.64 662  944 659.36  944 656  C 944 652.64  946.64 650  950 650  Z " fill-rule="nonzero" fill="#f0f0f0" stroke="none" />
  <path d="M 950 650.5  C 953.08 650.5  955.5 652.92  955.5 656  C 955.5 659.08  953.08 661.5  950 661.5  C 946.92 661.5  944.5 659.08  944.5 656  C 944.5 652.92  946.92 650.5  950 650.5  Z " stroke-width="1" stroke="#797979" fill="none" />
  <path d="M 950 659  C 948.32 659  947 657.68  947 656  C 947 654.32  948.32 653  950 653  C 951.68 653  953 654.32  953 656  C 953 657.68  951.68 659  950 659  " fill-rule="nonzero" fill="#797979" stroke="none" />
</svg>