<?xml version="1.0" encoding="utf-8"?>
<svg version="1.1" xmlns:xlink="http://www.w3.org/1999/xlink" width="12px" height="12px" viewBox="944 605  12 12" xmlns="http://www.w3.org/2000/svg">
  <path d="M 950 605  C 953.36 605  956 607.64  956 611  C 956 614.36  953.36 617  950 617  C 946.64 617  944 614.36  944 611  C 944 607.64  946.64 605  950 605  Z " fill-rule="nonzero" fill="#f0f0f0" stroke="none" />
  <path d="M 950 605.5  C 953.08 605.5  955.5 607.92  955.5 611  C 955.5 614.08  953.08 616.5  950 616.5  C 946.92 616.5  944.5 614.08  944.5 611  C 944.5 607.92  946.92 605.5  950 605.5  Z " stroke-width="1" stroke="#797979" fill="none" />
  <path d="M 950 614  C 948.32 614  947 612.68  947 611  C 947 609.32  948.32 608  950 608  C 951.68 608  953 609.32  953 611  C 953 612.68  951.68 614  950 614  " fill-rule="nonzero" fill="#797979" stroke="none" />
</svg>