<?xml version="1.0" encoding="utf-8"?>
<svg version="1.1" xmlns:xlink="http://www.w3.org/1999/xlink" width="13px" height="13px" xmlns="http://www.w3.org/2000/svg">
  <g transform="matrix(1 0 0 1 -2751 -1321 )">
    <path d="M 2757.5 1321  C 2761.14 1321  2764 1323.86  2764 1327.5  C 2764 1331.14  2761.14 1334  2757.5 1334  C 2753.86 1334  2751 1331.14  2751 1327.5  C 2751 1323.86  2753.86 1321  2757.5 1321  Z " fill-rule="nonzero" fill="#ffffff" stroke="none" />
    <path d="M 2757.5 1321.5  C 2760.86 1321.5  2763.5 1324.14  2763.5 1327.5  C 2763.5 1330.86  2760.86 1333.5  2757.5 1333.5  C 2754.14 1333.5  2751.5 1330.86  2751.5 1327.5  C 2751.5 1324.14  2754.14 1321.5  2757.5 1321.5  Z " stroke-width="1" stroke="#797979" fill="none" />
  </g>
</svg>