<?xml version="1.0" encoding="utf-8"?>
<svg version="1.1" xmlns:xlink="http://www.w3.org/1999/xlink" width="13px" height="22px" xmlns="http://www.w3.org/2000/svg">
  <g transform="matrix(1 0 0 1 -1355 -1054 )">
    <path d="M 0.223367697594502 10.4929859719439  C 0.0744558991981655 10.6399465597862  0 10.8089512358049  0 11  C 0 11.1910487641951  0.0744558991981655 11.3600534402138  0.223367697594502 11.5070140280561  L 10.6323024054983 21.7795591182365  C 10.7812142038946 21.9265197060788  10.9524627720504 22  11.1460481099656 22  C 11.3396334478809 22  11.5108820160367 21.9265197060788  11.659793814433 21.7795591182365  L 12.7766323024055 20.6773547094188  C 12.9255441008018 20.5303941215765  13 20.3613894455578  13 20.1703406813627  C 13 19.9792919171677  12.9255441008018 19.810287241149  12.7766323024055 19.6633266533066  L 3.99828178694158 11  L 12.7766323024055 2.33667334669339  C 12.9255441008018 2.18971275885103  13 2.02070808283233  13 1.82965931863728  C 13 1.63861055444221  12.9255441008018 1.46960587842351  12.7766323024055 1.32264529058116  L 11.659793814433 0.220440881763527  C 11.5108820160367 0.0734802939211749  11.3396334478809 0  11.1460481099656 0  C 10.9524627720504 0  10.7812142038946 0.0734802939211749  10.6323024054983 0.220440881763527  L 0.223367697594502 10.4929859719439  Z " fill-rule="nonzero" fill="#9b9494" stroke="none" transform="matrix(1 0 0 1 1355 1054 )" />
  </g>
</svg>