<?xml version="1.0" encoding="utf-8"?>
<svg version="1.1" xmlns:xlink="http://www.w3.org/1999/xlink" width="7px" height="16px" xmlns="http://www.w3.org/2000/svg">
  <g transform="matrix(1 0 0 1 -1620 -1342 )">
    <path d="M 6.87972508591065 7.6312625250501  C 6.95990836197022 7.73814295257181  7 7.86105544422178  7 8  C 7 8.13894455577822  6.95990836197022 8.26185704742819  6.87972508591065 8.3687374749499  L 1.27491408934708 15.8396793587174  C 1.19473081328751 15.9465597862391  1.10252004581901 16  0.998281786941581 16  C 0.894043528064147 16  0.801832760595647 15.9465597862391  0.721649484536082 15.8396793587174  L 0.120274914089347 15.0380761523046  C 0.0400916380297824 14.9311957247829  0 14.8082832331329  0 14.6693386773547  C 0 14.5303941215765  0.0400916380297824 14.4074816299265  0.120274914089347 14.3006012024048  L 4.84707903780069 8  L 0.120274914089347 1.69939879759519  C 0.0400916380297824 1.59251837007348  0 1.46960587842351  0 1.33066132264529  C 0 1.19171676686707  0.0400916380297824 1.0688042752171  0.120274914089347 0.96192384769539  L 0.721649484536082 0.160320641282565  C 0.801832760595647 0.0534402137608545  0.894043528064147 0  0.998281786941581 0  C 1.10252004581901 0  1.19473081328751 0.0534402137608545  1.27491408934708 0.160320641282565  L 6.87972508591065 7.6312625250501  Z " fill-rule="nonzero" fill="#9b9494" stroke="none" transform="matrix(1 0 0 1 1620 1342 )" />
  </g>
</svg>