<?xml version="1.0" encoding="utf-8"?>
<svg version="1.1" xmlns:xlink="http://www.w3.org/1999/xlink" width="18px" height="27px" xmlns="http://www.w3.org/2000/svg">
  <g transform="matrix(1 0 0 1 -918 -429 )">
    <path d="M 18 13.5  C 18 13.7903225806452  17.8899613899614 14.0415632754342  17.6698841698842 14.2537220843672  L 4.77799227799228 26.6817617866005  C 4.55791505791506 26.8939205955335  4.2972972972973 27  3.996138996139 27  C 3.6949806949807 27  3.43436293436293 26.8939205955335  3.21428571428571 26.6817617866005  L 0.33011583011583 23.901364764268  C 0.11003861003861 23.689205955335  0 23.4379652605459  0 23.1476426799007  C 0 22.8573200992556  0.11003861003861 22.6060794044665  0.33011583011583 22.3939205955335  L 9.55598455598456 13.5  L 0.33011583011583 4.6060794044665  C 0.11003861003861 4.3939205955335  0 4.14267990074442  0 3.85235732009925  C 0 3.56203473945409  0.11003861003861 3.31079404466501  0.33011583011583 3.09863523573201  L 3.21428571428571 0.318238213399503  C 3.43436293436293 0.1060794044665  3.6949806949807 0  3.996138996139 0  C 4.2972972972973 0  4.55791505791506 0.1060794044665  4.77799227799228 0.318238213399503  L 17.6698841698842 12.7462779156328  C 17.8899613899614 12.9584367245658  18 13.2096774193548  18 13.5  Z " fill-rule="nonzero" fill="#aba8a8" stroke="none" transform="matrix(1 0 0 1 918 429 )" />
  </g>
</svg>