<?xml version="1.0" encoding="utf-8"?>
<svg version="1.1" xmlns:xlink="http://www.w3.org/1999/xlink" width="12px" height="12px" viewBox="655 524  12 12" xmlns="http://www.w3.org/2000/svg">
  <path d="M 661 524  C 664.36 524  667 526.64  667 530  C 667 533.36  664.36 536  661 536  C 657.64 536  655 533.36  655 530  C 655 526.64  657.64 524  661 524  Z " fill-rule="nonzero" fill="#f0f0f0" stroke="none" />
  <path d="M 661 524.5  C 664.08 524.5  666.5 526.92  666.5 530  C 666.5 533.08  664.08 535.5  661 535.5  C 657.92 535.5  655.5 533.08  655.5 530  C 655.5 526.92  657.92 524.5  661 524.5  Z " stroke-width="1" stroke="#797979" fill="none" />
  <path d="M 661 533  C 659.32 533  658 531.68  658 530  C 658 528.32  659.32 527  661 527  C 662.68 527  664 528.32  664 530  C 664 531.68  662.68 533  661 533  " fill-rule="nonzero" fill="#797979" stroke="none" />
</svg>