<?xml version="1.0" encoding="utf-8"?>
<svg version="1.1" xmlns:xlink="http://www.w3.org/1999/xlink" width="12px" height="12px" viewBox="655 623  12 12" xmlns="http://www.w3.org/2000/svg">
  <path d="M 661 623  C 664.36 623  667 625.64  667 629  C 667 632.36  664.36 635  661 635  C 657.64 635  655 632.36  655 629  C 655 625.64  657.64 623  661 623  Z " fill-rule="nonzero" fill="#f0f0f0" stroke="none" />
  <path d="M 661 623.5  C 664.08 623.5  666.5 625.92  666.5 629  C 666.5 632.08  664.08 634.5  661 634.5  C 657.92 634.5  655.5 632.08  655.5 629  C 655.5 625.92  657.92 623.5  661 623.5  Z " stroke-width="1" stroke="#797979" fill="none" />
  <path d="M 661 632  C 659.32 632  658 630.68  658 629  C 658 627.32  659.32 626  661 626  C 662.68 626  664 627.32  664 629  C 664 630.68  662.68 632  661 632  " fill-rule="nonzero" fill="#797979" stroke="none" />
</svg>