<?xml version="1.0" encoding="utf-8"?>
<svg version="1.1" xmlns:xlink="http://www.w3.org/1999/xlink" width="12px" height="12px" viewBox="1175 275  12 12" xmlns="http://www.w3.org/2000/svg">
  <path d="M 1181 275  C 1184.36 275  1187 277.64  1187 281  C 1187 284.36  1184.36 287  1181 287  C 1177.64 287  1175 284.36  1175 281  C 1175 277.64  1177.64 275  1181 275  Z " fill-rule="nonzero" fill="#ffffff" stroke="none" />
  <path d="M 1181 275.5  C 1184.08 275.5  1186.5 277.92  1186.5 281  C 1186.5 284.08  1184.08 286.5  1181 286.5  C 1177.92 286.5  1175.5 284.08  1175.5 281  C 1175.5 277.92  1177.92 275.5  1181 275.5  Z " stroke-width="1" stroke="#797979" fill="none" />
  <path d="M 1181 284  C 1179.32 284  1178 282.68  1178 281  C 1178 279.32  1179.32 278  1181 278  C 1182.68 278  1184 279.32  1184 281  C 1184 282.68  1182.68 284  1181 284  " fill-rule="nonzero" fill="#797979" stroke="none" />
</svg>