<?xml version="1.0" encoding="utf-8"?>
<svg version="1.1" xmlns:xlink="http://www.w3.org/1999/xlink" width="12px" height="12px" viewBox="1175 376  12 12" xmlns="http://www.w3.org/2000/svg">
  <path d="M 1181 376  C 1184.36 376  1187 378.64  1187 382  C 1187 385.36  1184.36 388  1181 388  C 1177.64 388  1175 385.36  1175 382  C 1175 378.64  1177.64 376  1181 376  Z " fill-rule="nonzero" fill="#ffffff" stroke="none" />
  <path d="M 1181 376.5  C 1184.08 376.5  1186.5 378.92  1186.5 382  C 1186.5 385.08  1184.08 387.5  1181 387.5  C 1177.92 387.5  1175.5 385.08  1175.5 382  C 1175.5 378.92  1177.92 376.5  1181 376.5  Z " stroke-width="1" stroke="#797979" fill="none" />
  <path d="M 1181 385  C 1179.32 385  1178 383.68  1178 382  C 1178 380.32  1179.32 379  1181 379  C 1182.68 379  1184 380.32  1184 382  C 1184 383.68  1182.68 385  1181 385  " fill-rule="nonzero" fill="#797979" stroke="none" />
</svg>