<?xml version="1.0" encoding="utf-8"?>
<svg version="1.1" xmlns:xlink="http://www.w3.org/1999/xlink" width="12px" height="12px" viewBox="1175 423  12 12" xmlns="http://www.w3.org/2000/svg">
  <path d="M 1181 423  C 1184.36 423  1187 425.64  1187 429  C 1187 432.36  1184.36 435  1181 435  C 1177.64 435  1175 432.36  1175 429  C 1175 425.64  1177.64 423  1181 423  Z " fill-rule="nonzero" fill="#ffffff" stroke="none" />
  <path d="M 1181 423.5  C 1184.08 423.5  1186.5 425.92  1186.5 429  C 1186.5 432.08  1184.08 434.5  1181 434.5  C 1177.92 434.5  1175.5 432.08  1175.5 429  C 1175.5 425.92  1177.92 423.5  1181 423.5  Z " stroke-width="1" stroke="#797979" fill="none" />
  <path d="M 1181 432  C 1179.32 432  1178 430.68  1178 429  C 1178 427.32  1179.32 426  1181 426  C 1182.68 426  1184 427.32  1184 429  C 1184 430.68  1182.68 432  1181 432  " fill-rule="nonzero" fill="#797979" stroke="none" />
</svg>