<?xml version="1.0" encoding="utf-8"?>
<svg version="1.1" xmlns:xlink="http://www.w3.org/1999/xlink" width="12px" height="12px" viewBox="1175 476  12 12" xmlns="http://www.w3.org/2000/svg">
  <path d="M 1181 476  C 1184.36 476  1187 478.64  1187 482  C 1187 485.36  1184.36 488  1181 488  C 1177.64 488  1175 485.36  1175 482  C 1175 478.64  1177.64 476  1181 476  Z " fill-rule="nonzero" fill="#ffffff" stroke="none" />
  <path d="M 1181 476.5  C 1184.08 476.5  1186.5 478.92  1186.5 482  C 1186.5 485.08  1184.08 487.5  1181 487.5  C 1177.92 487.5  1175.5 485.08  1175.5 482  C 1175.5 478.92  1177.92 476.5  1181 476.5  Z " stroke-width="1" stroke="#797979" fill="none" />
  <path d="M 1181 485  C 1179.32 485  1178 483.68  1178 482  C 1178 480.32  1179.32 479  1181 479  C 1182.68 479  1184 480.32  1184 482  C 1184 483.68  1182.68 485  1181 485  " fill-rule="nonzero" fill="#797979" stroke="none" />
</svg>