<?xml version="1.0" encoding="utf-8"?>
<svg version="1.1" xmlns:xlink="http://www.w3.org/1999/xlink" width="12px" height="12px" viewBox="1176 198  12 12" xmlns="http://www.w3.org/2000/svg">
  <path d="M 1182 198  C 1185.36 198  1188 200.64  1188 204  C 1188 207.36  1185.36 210  1182 210  C 1178.64 210  1176 207.36  1176 204  C 1176 200.64  1178.64 198  1182 198  Z " fill-rule="nonzero" fill="#ffffff" stroke="none" />
  <path d="M 1182 198.5  C 1185.08 198.5  1187.5 200.92  1187.5 204  C 1187.5 207.08  1185.08 209.5  1182 209.5  C 1178.92 209.5  1176.5 207.08  1176.5 204  C 1176.5 200.92  1178.92 198.5  1182 198.5  Z " stroke-width="1" stroke="#797979" fill="none" />
  <path d="M 1182 207  C 1180.32 207  1179 205.68  1179 204  C 1179 202.32  1180.32 201  1182 201  C 1183.68 201  1185 202.32  1185 204  C 1185 205.68  1183.68 207  1182 207  " fill-rule="nonzero" fill="#797979" stroke="none" />
</svg>