<?xml version="1.0" encoding="utf-8"?>
<svg version="1.1" xmlns:xlink="http://www.w3.org/1999/xlink" width="12px" height="12px" viewBox="655 1120  12 12" xmlns="http://www.w3.org/2000/svg">
  <path d="M 661 1120  C 664.36 1120  667 1122.64  667 1126  C 667 1129.36  664.36 1132  661 1132  C 657.64 1132  655 1129.36  655 1126  C 655 1122.64  657.64 1120  661 1120  Z " fill-rule="nonzero" fill="#f0f0f0" stroke="none" />
  <path d="M 661 1120.5  C 664.08 1120.5  666.5 1122.92  666.5 1126  C 666.5 1129.08  664.08 1131.5  661 1131.5  C 657.92 1131.5  655.5 1129.08  655.5 1126  C 655.5 1122.92  657.92 1120.5  661 1120.5  Z " stroke-width="1" stroke="#797979" fill="none" />
  <path d="M 661 1129  C 659.32 1129  658 1127.68  658 1126  C 658 1124.32  659.32 1123  661 1123  C 662.68 1123  664 1124.32  664 1126  C 664 1127.68  662.68 1129  661 1129  " fill-rule="nonzero" fill="#797979" stroke="none" />
</svg>