<?xml version="1.0" encoding="utf-8"?>
<svg version="1.1" xmlns:xlink="http://www.w3.org/1999/xlink" width="12px" height="12px" viewBox="655 1173  12 12" xmlns="http://www.w3.org/2000/svg">
  <path d="M 661 1173  C 664.36 1173  667 1175.64  667 1179  C 667 1182.36  664.36 1185  661 1185  C 657.64 1185  655 1182.36  655 1179  C 655 1175.64  657.64 1173  661 1173  Z " fill-rule="nonzero" fill="#f0f0f0" stroke="none" />
  <path d="M 661 1173.5  C 664.08 1173.5  666.5 1175.92  666.5 1179  C 666.5 1182.08  664.08 1184.5  661 1184.5  C 657.92 1184.5  655.5 1182.08  655.5 1179  C 655.5 1175.92  657.92 1173.5  661 1173.5  Z " stroke-width="1" stroke="#797979" fill="none" />
  <path d="M 661 1182  C 659.32 1182  658 1180.68  658 1179  C 658 1177.32  659.32 1176  661 1176  C 662.68 1176  664 1177.32  664 1179  C 664 1180.68  662.68 1182  661 1182  " fill-rule="nonzero" fill="#797979" stroke="none" />
</svg>