<?xml version="1.0" encoding="utf-8"?>
<svg version="1.1" xmlns:xlink="http://www.w3.org/1999/xlink" width="24px" height="23px" xmlns="http://www.w3.org/2000/svg">
  <g transform="matrix(1 0 0 1 -1043 -891 )">
    <path d="M 1055 891  C 1061.72 891  1067 896.06  1067 902.5  C 1067 908.94  1061.72 914  1055 914  C 1048.28 914  1043 908.94  1043 902.5  C 1043 896.06  1048.28 891  1055 891  Z " fill-rule="nonzero" fill="#ffffff" stroke="none" />
    <path d="M 1055 891.5  C 1061.44 891.5  1066.5 896.34  1066.5 902.5  C 1066.5 908.66  1061.44 913.5  1055 913.5  C 1048.56 913.5  1043.5 908.66  1043.5 902.5  C 1043.5 896.34  1048.56 891.5  1055 891.5  Z " stroke-width="1" stroke="#797979" fill="none" />
  </g>
</svg>